<svg width="87" height="83" viewBox="0 0 87 83" fill="none" xmlns="http://www.w3.org/2000/svg">
<path d="M51.9499 41.8977C51.9499 42.1555 51.9378 42.4134 51.9135 42.6699C51.8893 42.9264 51.8529 43.1817 51.8045 43.4345C51.756 43.6879 51.6954 43.9375 51.6239 44.1846C51.5518 44.4317 51.4682 44.6744 51.373 44.9126C51.2785 45.1509 51.1725 45.3835 51.0555 45.6111C50.9386 45.8386 50.8107 46.0599 50.6732 46.2742C50.535 46.4891 50.3878 46.6959 50.2302 46.8957C50.0727 47.0949 49.906 47.2859 49.7309 47.468C49.5552 47.6508 49.3716 47.8235 49.1801 47.9874C48.988 48.1513 48.7893 48.3045 48.5826 48.4482C48.3766 48.5913 48.1639 48.7237 47.9452 48.8453C47.7264 48.967 47.5022 49.0773 47.2732 49.1762C47.0435 49.2746 46.8102 49.3616 46.5727 49.4366C46.3352 49.5116 46.0952 49.574 45.8516 49.6244C45.608 49.6748 45.3632 49.7127 45.116 49.7379C44.8694 49.7631 44.6215 49.7757 44.3737 49.7757C44.1252 49.7757 43.878 49.7631 43.6308 49.7379C43.3842 49.7127 43.1388 49.6748 42.8952 49.6244C42.6522 49.574 42.4116 49.5116 42.1741 49.4366C41.9366 49.3616 41.7033 49.2746 41.4742 49.1762C41.2452 49.0773 41.021 48.967 40.8022 48.8453C40.5835 48.7237 40.3708 48.5913 40.1641 48.4482C39.9581 48.3045 39.7588 48.1513 39.5673 47.9874C39.3752 47.8235 39.1916 47.6508 39.0165 47.468C38.8407 47.2859 38.6741 47.0949 38.5172 46.8957C38.3596 46.6959 38.2118 46.4891 38.0742 46.2742C37.9361 46.0599 37.8088 45.8386 37.6919 45.6111C37.5749 45.3835 37.4689 45.1509 37.3737 44.9126C37.2792 44.6744 37.1956 44.4317 37.1235 44.1846C37.0514 43.9375 36.9914 43.6879 36.9429 43.4345C36.8944 43.1817 36.8581 42.9264 36.8338 42.6699C36.8096 42.4134 36.7969 42.1555 36.7969 41.8977C36.7969 41.6399 36.8096 41.3821 36.8338 41.1256C36.8581 40.8684 36.8944 40.6137 36.9429 40.361C36.9914 40.1076 37.0514 39.858 37.1235 39.6109C37.1956 39.3638 37.2792 39.1211 37.3737 38.8828C37.4689 38.6446 37.5749 38.4113 37.6919 38.1838C37.8088 37.9562 37.9361 37.7356 38.0742 37.5207C38.2118 37.3064 38.3596 37.099 38.5172 36.8998C38.6741 36.7006 38.8407 36.5096 39.0165 36.3268C39.1916 36.1446 39.3752 35.9713 39.5673 35.808C39.7588 35.6442 39.9581 35.4904 40.1641 35.3473C40.3708 35.2042 40.5835 35.0712 40.8022 34.9495C41.021 34.8279 41.2452 34.7182 41.4742 34.6192C41.7033 34.5203 41.9366 34.4339 42.1741 34.3589C42.4116 34.2839 42.6522 34.2215 42.8952 34.1711C43.1388 34.1206 43.3842 34.0828 43.6308 34.0576C43.878 34.0324 44.1252 34.0198 44.3737 34.0198C44.6215 34.0198 44.8694 34.0324 45.116 34.0576C45.3632 34.0828 45.608 34.1206 45.8516 34.1711C46.0952 34.2215 46.3352 34.2839 46.5727 34.3589C46.8102 34.4339 47.0435 34.5203 47.2732 34.6192C47.5022 34.7182 47.7264 34.8279 47.9452 34.9495C48.1639 35.0712 48.3766 35.2042 48.5826 35.3473C48.7893 35.4904 48.988 35.6442 49.1801 35.808C49.3716 35.9713 49.5552 36.1446 49.7309 36.3268C49.906 36.5096 50.0727 36.7006 50.2302 36.8998C50.3878 37.099 50.535 37.3064 50.6732 37.5207C50.8107 37.7356 50.9386 37.9562 51.0555 38.1838C51.1725 38.4113 51.2785 38.6446 51.373 38.8828C51.4682 39.1211 51.5518 39.3638 51.6239 39.6109C51.6954 39.858 51.756 40.1076 51.8045 40.361C51.8529 40.6137 51.8893 40.8684 51.9135 41.1256C51.9378 41.3821 51.9499 41.6399 51.9499 41.8977Z" fill="#00D8FF"/>
<mask id="mask0_69_735" style="mask-type:luminance" maskUnits="userSpaceOnUse" x="0" y="4" width="106" height="76">
<path d="M0.905396 4.55786H105.568V79.4319H0.905396V4.55786Z" fill="white"/>
</mask>
<g mask="url(#mask0_69_735)">
<path d="M44.3749 25.884C54.547 25.884 63.9974 27.4019 71.1222 29.9529C79.7073 33.0258 84.9851 37.6839 84.9851 41.9022C84.9851 46.2975 79.3916 51.2463 70.1726 54.4226C63.203 56.8235 54.0313 58.0766 44.3749 58.0766C34.4748 58.0766 25.0996 56.9004 18.0518 54.3961C9.13458 51.2267 3.76343 46.2137 3.76343 41.9022C3.76343 37.718 8.80312 33.0957 17.267 30.0272C24.4185 27.4347 34.1016 25.884 44.3743 25.884H44.3749Z" stroke="#00D8FF" stroke-width="2.90543"/>
</g>
<mask id="mask1_69_735" style="mask-type:luminance" maskUnits="userSpaceOnUse" x="0" y="0" width="90" height="83">
<path d="M0.905396 0.944336H89.1246V82.9992H0.905396V0.944336Z" fill="white"/>
</mask>
<g mask="url(#mask1_69_735)">
<path d="M30.9628 33.9346C36.0449 24.772 42.0299 17.0188 47.7143 11.874C54.5634 5.67655 61.0797 3.24975 64.5943 5.35633C68.256 7.55243 69.5843 15.0635 67.6246 24.9548C66.1449 32.4325 62.6055 41.3196 57.7816 50.0183C52.8358 58.9357 47.1726 66.7928 41.5651 71.8885C34.47 78.3381 27.6106 80.6716 24.0192 78.5177C20.5337 76.4294 19.2007 69.5789 20.8725 60.4226C22.2855 52.6852 25.831 43.1892 30.961 33.9365L30.9628 33.9346Z" stroke="#00D8FF" stroke-width="2.90543"/>
</g>
<mask id="mask2_69_735" style="mask-type:luminance" maskUnits="userSpaceOnUse" x="0" y="0" width="90" height="83">
<path d="M0.905396 0.944336H89.2798V82.9992H0.905396V0.944336Z" fill="white"/>
</mask>
<g mask="url(#mask2_69_735)">
<path d="M30.9753 50.042C25.8799 40.8902 22.4096 31.6248 20.9614 23.9347C19.218 14.6694 20.4505 7.58566 23.9608 5.47213C27.6195 3.26974 34.5407 5.82449 41.803 12.5294C47.2936 17.5986 52.9313 25.2238 57.7692 33.913C62.729 42.8222 66.4471 51.8479 67.8929 59.4441C69.7228 69.0568 68.2419 76.4009 64.6529 78.5617C61.1711 80.6582 54.7989 78.4387 48.0043 72.3591C42.2636 67.2219 36.1216 59.2853 30.9753 50.0408V50.042Z" stroke="#00D8FF" stroke-width="2.90543"/>
</g>
</svg>
