<svg width="75" height="89" viewBox="0 0 75 89" fill="none" xmlns="http://www.w3.org/2000/svg">
<path d="M37.1968 88.2706L6.85077 79.5072L0.0881348 0.605469H74.3964L67.6268 79.4951L37.1968 88.2706Z" fill="#264DE4"/>
<path d="M61.8312 74.4716L67.616 7.05664H37.2423V81.5627L61.8312 74.4716Z" fill="#2965F1"/>
<path d="M15.5912 36.3202L16.4249 45.9972H37.2423V36.3202H15.5912ZM13.9158 16.7339L14.7614 26.4109H37.2423V16.7339H13.9158ZM37.2423 61.4524L37.2015 61.4637L26.8413 58.5536L26.1789 50.8359H16.8405L18.1437 66.0302L37.1995 71.5327L37.2423 71.5206V61.4524Z" fill="#EBEBEB"/>
<path d="M58.834 36.3202L60.5132 16.7339H37.2103V26.4109H50.3184L49.4719 36.3202H37.2103V45.9972H48.6654L47.5853 58.5476L37.21 61.4606V71.5282L56.2809 66.0302L56.4207 64.3952L58.607 38.9188L58.834 36.3202Z" fill="white"/>
</svg>
