<svg width="66" height="83" viewBox="0 0 66 83" fill="none" xmlns="http://www.w3.org/2000/svg">
<path d="M65.4139 0.20166L59.4638 73.9906L32.7179 82.1988L6.04577 74.002L0.101868 0.20166H65.4139Z" fill="#E44D26"/>
<path d="M32.7579 75.9247L54.3699 69.292L59.4543 6.23584H32.7579V75.9247Z" fill="#F16529"/>
<path d="M21.1911 24.3387H32.7579V15.2874H12.2554L12.451 17.7156L14.4607 42.6586H32.7579V33.6073H21.9384L21.1911 24.3387ZM23.0339 47.1844H14.8261L15.9715 61.3964L32.7202 66.5431L32.7579 66.5318V57.1146L32.722 57.1251L23.6161 54.4032L23.0339 47.1844Z" fill="#EBEBEB"/>
<path d="M32.7297 42.6586H42.798L41.8487 54.3975L32.7294 57.1223V66.5389L49.4915 61.3964L49.6144 59.8671L51.536 36.0379L51.7355 33.6073H32.7297V42.6586ZM32.7297 24.3166V24.3387H52.4795L52.6433 22.3043L53.0161 17.7156L53.2114 15.2874H32.7297V24.3166Z" fill="white"/>
</svg>
