<svg width="80" height="82" viewBox="0 0 80 82" fill="none" xmlns="http://www.w3.org/2000/svg">
<path fill-rule="evenodd" clip-rule="evenodd" d="M39.7462 0.812256C17.8427 0.812256 0.101868 19.2611 0.101868 42.0386C0.101868 60.2813 11.45 75.6897 27.2087 81.1522C29.1909 81.5129 29.9342 80.2761 29.9342 79.1939C29.9342 78.2148 29.8847 74.9682 29.8847 71.5155C19.924 73.4222 17.3471 68.9904 16.5543 66.6714C16.1083 65.4861 14.1756 61.8273 12.4907 60.8482C11.1032 60.0752 9.12095 58.1685 12.4412 58.1169C15.5631 58.0654 17.7931 61.1058 18.5365 62.3426C22.1045 68.5781 27.8033 66.826 30.0829 65.7438C30.4298 63.0641 31.4704 61.2604 32.6102 60.2298C23.7893 59.1991 14.572 55.6433 14.572 39.8743C14.572 35.3909 16.1083 31.6805 18.6356 28.7947C18.2391 27.764 16.8516 23.5383 19.032 17.8697C19.032 17.8697 22.3522 16.7875 29.9342 22.0954C33.1057 21.1678 36.4755 20.704 39.8453 20.704C43.215 20.704 46.5848 21.1678 49.7564 22.0954C57.3383 16.7359 60.6585 17.8697 60.6585 17.8697C62.839 23.5383 61.4514 27.764 61.055 28.7947C63.5823 31.6805 65.1185 35.3394 65.1185 39.8743C65.1185 55.6949 55.8517 59.1991 47.0308 60.2298C48.4679 61.5181 49.7068 63.9917 49.7068 67.8567C49.7068 73.3707 49.6572 77.8025 49.6572 79.1939C49.6572 80.2761 50.4006 81.5644 52.3828 81.1522C68.0423 75.6897 79.3905 60.2298 79.3905 42.0386C79.3905 19.2611 61.6496 0.812256 39.7462 0.812256Z" fill="#1B1F23"/>
</svg>
