<svg width="32" height="28" viewBox="0 0 32 28" fill="none" xmlns="http://www.w3.org/2000/svg">
<path d="M19.7917 12.25C19.7917 13.1783 19.3844 14.0685 18.6595 14.7249C17.9345 15.3813 16.9512 15.75 15.9259 15.75C14.9007 15.75 13.9174 15.3813 13.1924 14.7249C12.4675 14.0685 12.0602 13.1783 12.0602 12.25C12.0602 11.3217 12.4675 10.4315 13.1924 9.77513C13.9174 9.11875 14.9007 8.75 15.9259 8.75C16.9512 8.75 17.9345 9.11875 18.6595 9.77513C19.3844 10.4315 19.7917 11.3217 19.7917 12.25V12.25Z" stroke="white" stroke-width="1.5" stroke-linecap="round" stroke-linejoin="round"/>
<path d="M25.5904 12.25C25.5904 20.5823 15.926 25.375 15.926 25.375C15.926 25.375 6.2616 20.5823 6.2616 12.25C6.2616 9.92936 7.27981 7.70376 9.09224 6.06282C10.9047 4.42187 13.3628 3.5 15.926 3.5C18.4892 3.5 20.9474 4.42187 22.7598 6.06282C24.5722 7.70376 25.5904 9.92936 25.5904 12.25V12.25Z" stroke="white" stroke-width="1.5" stroke-linecap="round" stroke-linejoin="round"/>
</svg>
