<svg width="1182" height="375" viewBox="0 0 1182 375" fill="none" xmlns="http://www.w3.org/2000/svg">
<rect width="1174.17" height="347.602" rx="32" transform="matrix(0.999726 -0.0234157 0.0234638 0.999725 0 27.4939)" fill="#7DE0EA"/>
<g clip-path="url(#clip0_80_1554)">
<rect x="10.2158" y="13.6565" width="1169" height="348" rx="32" fill="#583FBC"/>
<g opacity="0.25">
<path d="M9.88281 211.84C23.7382 211.84 129.039 330.996 268.385 330.996C461.964 330.996 566.191 -103.079 838.83 18.2604C1054.97 114.456 1149.98 124.749 1189.57 57.8473" stroke="#BECED8"/>
<path d="M9.88281 108.914C22.1547 118.019 129.039 330.996 268.385 330.996C461.964 330.996 597.86 -55.5747 870.499 65.7646C1086.64 161.961 1120.69 146.522 1189.57 97.4342" stroke="#BECED8"/>
<path d="M9.88281 275.179C23.7382 275.179 129.039 334.163 268.385 334.163C461.964 334.163 568.452 -173.925 822.995 -18.1595C1008.66 95.4546 1118.31 140.584 1189.57 89.5167" stroke="#BECED8"/>
</g>
</g>
<defs>
<clipPath id="clip0_80_1554">
<rect x="10.2158" y="13.6565" width="1169" height="348" rx="32" fill="white"/>
</clipPath>
</defs>
</svg>
