<svg width="28" height="20" viewBox="0 0 28 20" fill="none" xmlns="http://www.w3.org/2000/svg">
<path d="M26.4897 3.875V16.125C26.4897 16.8212 26.1842 17.4889 25.6405 17.9812C25.0967 18.4734 24.3593 18.75 23.5903 18.75H4.26151C3.49256 18.75 2.7551 18.4734 2.21138 17.9812C1.66765 17.4889 1.36218 16.8212 1.36218 16.125V3.875M26.4897 3.875C26.4897 3.17881 26.1842 2.51113 25.6405 2.01884C25.0967 1.52656 24.3593 1.25 23.5903 1.25H4.26151C3.49256 1.25 2.7551 1.52656 2.21138 2.01884C1.66765 2.51113 1.36218 3.17881 1.36218 3.875M26.4897 3.875V4.1585C26.4897 4.60667 26.363 5.04739 26.1217 5.43868C25.8803 5.82997 25.5323 6.15879 25.1109 6.39383L15.4465 11.778C14.9893 12.033 14.4629 12.168 13.9259 12.168C13.389 12.168 12.8626 12.033 12.4054 11.778L2.74097 6.395C2.3195 6.15996 1.97152 5.83113 1.73016 5.43985C1.48881 5.04856 1.36213 4.60784 1.36218 4.15967V3.875" stroke="white" stroke-width="1.5" stroke-linecap="round" stroke-linejoin="round"/>
</svg>
