<svg width="32" height="28" viewBox="0 0 32 28" fill="none" xmlns="http://www.w3.org/2000/svg">
<path d="M3.36218 7.875C3.36218 17.5397 12.0163 25.375 22.691 25.375H25.5903C26.3593 25.375 27.0967 25.0984 27.6405 24.6062C28.1842 24.1139 28.4897 23.4462 28.4897 22.75V21.1493C28.4897 20.5473 28.0374 20.0223 27.3918 19.8765L21.6924 18.5862C21.1254 18.4578 20.53 18.6503 20.1808 19.0727L18.9309 20.5812C18.5675 21.0198 17.94 21.2135 17.3717 21.0245C15.2621 20.3223 13.3464 19.2134 11.7571 17.7744C10.1677 16.3355 8.9429 14.601 8.16733 12.691C7.95858 12.1765 8.17248 11.6083 8.65699 11.2793L10.3231 10.1477C10.7909 9.8315 11.0022 9.29133 10.8605 8.77917L9.4353 3.619C9.35688 3.33514 9.17593 3.08315 8.92122 2.90306C8.66651 2.72297 8.35263 2.6251 8.02945 2.625H6.26151C5.49256 2.625 4.7551 2.90156 4.21138 3.39384C3.66765 3.88613 3.36218 4.55381 3.36218 5.25V7.875Z" stroke="white" stroke-width="1.5" stroke-linecap="round" stroke-linejoin="round"/>
</svg>
